<mxfile host="65bd71144e">
    <diagram id="oJOz_GPB8GrxdwTM_mam" name="Page-1">
        <mxGraphModel dx="996" dy="664" grid="1" gridSize="10" guides="1" tooltips="1" connect="1" arrows="1" fold="1" page="1" pageScale="1" pageWidth="850" pageHeight="1100" math="0" shadow="0">
            <root>
                <mxCell id="0"/>
                <mxCell id="1" parent="0"/>
                <mxCell id="2" value="DB" style="swimlane;fontStyle=0;childLayout=stackLayout;horizontal=1;startSize=26;horizontalStack=0;resizeParent=1;resizeParentMax=0;resizeLast=0;collapsible=1;marginBottom=0;" vertex="1" parent="1">
                    <mxGeometry x="302.5" y="690" width="220" height="104" as="geometry"/>
                </mxCell>
                <mxCell id="3" value="Users" style="text;strokeColor=none;fillColor=#333333;align=left;verticalAlign=top;spacingLeft=4;spacingRight=4;overflow=hidden;rotatable=0;points=[[0,0.5],[1,0.5]];portConstraint=eastwest;" vertex="1" parent="2">
                    <mxGeometry y="26" width="220" height="26" as="geometry"/>
                </mxCell>
                <mxCell id="4" value="Orders" style="text;strokeColor=none;fillColor=#333333;align=left;verticalAlign=top;spacingLeft=4;spacingRight=4;overflow=hidden;rotatable=0;points=[[0,0.5],[1,0.5]];portConstraint=eastwest;" vertex="1" parent="2">
                    <mxGeometry y="52" width="220" height="26" as="geometry"/>
                </mxCell>
                <mxCell id="5" value="Menu" style="text;strokeColor=none;fillColor=#333333;align=left;verticalAlign=top;spacingLeft=4;spacingRight=4;overflow=hidden;rotatable=0;points=[[0,0.5],[1,0.5]];portConstraint=eastwest;" vertex="1" parent="2">
                    <mxGeometry y="78" width="220" height="26" as="geometry"/>
                </mxCell>
                <mxCell id="6" value="" style="rounded=1;whiteSpace=wrap;html=1;" vertex="1" parent="1">
                    <mxGeometry x="40" y="160" width="770" height="500" as="geometry"/>
                </mxCell>
                <mxCell id="7" value="&lt;font style=&quot;font-size: 24px&quot;&gt;Fresh Bytes Kitchen&lt;/font&gt;" style="text;html=1;strokeColor=none;fillColor=none;align=center;verticalAlign=middle;whiteSpace=wrap;rounded=0;" vertex="1" parent="1">
                    <mxGeometry x="314" y="180" width="222" height="20" as="geometry"/>
                </mxCell>
                <mxCell id="8" value="" style="shape=process;whiteSpace=wrap;html=1;backgroundOutline=1;" vertex="1" parent="1">
                    <mxGeometry x="60" y="230" width="740" height="220" as="geometry"/>
                </mxCell>
                <mxCell id="9" value="&lt;span style=&quot;font-size: 24px&quot;&gt;Hero/Slideshow&lt;/span&gt;" style="text;html=1;strokeColor=none;fillColor=none;align=center;verticalAlign=middle;whiteSpace=wrap;rounded=0;" vertex="1" parent="1">
                    <mxGeometry x="324" y="270" width="222" height="20" as="geometry"/>
                </mxCell>
                <mxCell id="10" value="&lt;span style=&quot;font-size: 24px&quot;&gt;Signature Dishes / Intro&lt;br&gt;&lt;/span&gt;" style="text;html=1;strokeColor=none;fillColor=none;align=center;verticalAlign=middle;whiteSpace=wrap;rounded=0;" vertex="1" parent="1">
                    <mxGeometry x="324" y="480" width="222" height="20" as="geometry"/>
                </mxCell>
                <mxCell id="11" value="&lt;h1&gt;&lt;span style=&quot;font-size: 12px ; font-weight: normal&quot;&gt;Lorem ipsum dolor sit amet, consectetur adipisicing elit, sed do eiusmod tempor incididunt ut labore et dolore magna aliqua.&lt;/span&gt;&lt;br&gt;&lt;/h1&gt;" style="text;html=1;strokeColor=none;fillColor=none;spacing=5;spacingTop=-20;whiteSpace=wrap;overflow=hidden;rounded=0;" vertex="1" parent="1">
                    <mxGeometry x="302.5" y="520" width="265" height="120" as="geometry"/>
                </mxCell>
                <mxCell id="12" value="" style="ellipse;whiteSpace=wrap;html=1;aspect=fixed;" vertex="1" parent="1">
                    <mxGeometry x="710" y="170" width="30" height="30" as="geometry"/>
                </mxCell>
                <mxCell id="13" value="Cart" style="text;html=1;strokeColor=none;fillColor=none;align=center;verticalAlign=middle;whiteSpace=wrap;rounded=0;" vertex="1" parent="1">
                    <mxGeometry x="670" y="175" width="40" height="20" as="geometry"/>
                </mxCell>
                <mxCell id="14" value="" style="ellipse;shape=cloud;whiteSpace=wrap;html=1;" vertex="1" parent="1">
                    <mxGeometry x="375" y="320" width="120" height="80" as="geometry"/>
                </mxCell>
                <mxCell id="15" value="" style="shape=process;whiteSpace=wrap;html=1;backgroundOutline=1;" vertex="1" parent="1">
                    <mxGeometry x="60" y="205" width="740" height="30" as="geometry"/>
                </mxCell>
                <mxCell id="16" value="FBK" style="text;html=1;strokeColor=none;fillColor=none;align=center;verticalAlign=middle;whiteSpace=wrap;rounded=0;" vertex="1" parent="1">
                    <mxGeometry x="80" y="210" width="40" height="20" as="geometry"/>
                </mxCell>
                <mxCell id="18" value="Home" style="text;html=1;strokeColor=none;fillColor=none;align=center;verticalAlign=middle;whiteSpace=wrap;rounded=0;" vertex="1" parent="1">
                    <mxGeometry x="245" y="215" width="40" height="20" as="geometry"/>
                </mxCell>
                <mxCell id="19" value="About" style="text;html=1;strokeColor=none;fillColor=none;align=center;verticalAlign=middle;whiteSpace=wrap;rounded=0;" vertex="1" parent="1">
                    <mxGeometry x="315" y="215" width="40" height="20" as="geometry"/>
                </mxCell>
                <mxCell id="20" value="Menu" style="text;html=1;strokeColor=none;fillColor=none;align=center;verticalAlign=middle;whiteSpace=wrap;rounded=0;" vertex="1" parent="1">
                    <mxGeometry x="397.5" y="215" width="40" height="20" as="geometry"/>
                </mxCell>
                <mxCell id="21" value="Gallery" style="text;html=1;strokeColor=none;fillColor=none;align=center;verticalAlign=middle;whiteSpace=wrap;rounded=0;" vertex="1" parent="1">
                    <mxGeometry x="480" y="215" width="40" height="20" as="geometry"/>
                </mxCell>
                <mxCell id="22" value="Contact" style="text;html=1;strokeColor=none;fillColor=none;align=center;verticalAlign=middle;whiteSpace=wrap;rounded=0;" vertex="1" parent="1">
                    <mxGeometry x="565" y="215" width="40" height="20" as="geometry"/>
                </mxCell>
                <mxCell id="24" value="&lt;ol&gt;&lt;li&gt;&lt;span&gt;DB/API&lt;/span&gt;&lt;/li&gt;&lt;li&gt;&lt;span&gt;Menu&lt;/span&gt;&lt;/li&gt;&lt;li&gt;Cart&lt;/li&gt;&lt;li&gt;Front-end&lt;/li&gt;&lt;/ol&gt;" style="text;strokeColor=none;fillColor=#333333;html=1;whiteSpace=wrap;verticalAlign=middle;overflow=hidden;" vertex="1" parent="1">
                    <mxGeometry x="605" y="690" width="125" height="102" as="geometry"/>
                </mxCell>
                <mxCell id="39" value="Menu" style="shape=table;startSize=30;container=1;collapsible=0;childLayout=tableLayout;fixedRows=1;rowLines=0;fontStyle=1;align=center;fillColor=#333333;" vertex="1" parent="1">
                    <mxGeometry x="60" y="690" width="180" height="240" as="geometry"/>
                </mxCell>
                <mxCell id="40" value="" style="shape=partialRectangle;html=1;whiteSpace=wrap;collapsible=0;dropTarget=0;pointerEvents=0;fillColor=none;top=0;left=0;bottom=1;right=0;points=[[0,0.5],[1,0.5]];portConstraint=eastwest;" vertex="1" parent="39">
                    <mxGeometry y="30" width="180" height="30" as="geometry"/>
                </mxCell>
                <mxCell id="41" value="1" style="shape=partialRectangle;html=1;whiteSpace=wrap;connectable=0;fillColor=#333333;top=0;left=0;bottom=0;right=0;overflow=hidden;" vertex="1" parent="40">
                    <mxGeometry width="40" height="30" as="geometry"/>
                </mxCell>
                <mxCell id="42" value="Craft Cocktails" style="shape=partialRectangle;html=1;whiteSpace=wrap;connectable=0;fillColor=#333333;top=0;left=0;bottom=0;right=0;align=left;spacingLeft=6;overflow=hidden;" vertex="1" parent="40">
                    <mxGeometry x="40" width="140" height="30" as="geometry"/>
                </mxCell>
                <mxCell id="43" value="" style="shape=partialRectangle;html=1;whiteSpace=wrap;collapsible=0;dropTarget=0;pointerEvents=0;fillColor=none;top=0;left=0;bottom=0;right=0;points=[[0,0.5],[1,0.5]];portConstraint=eastwest;" vertex="1" parent="39">
                    <mxGeometry y="60" width="180" height="30" as="geometry"/>
                </mxCell>
                <mxCell id="44" value="2" style="shape=partialRectangle;html=1;whiteSpace=wrap;connectable=0;fillColor=#333333;top=0;left=0;bottom=0;right=0;overflow=hidden;" vertex="1" parent="43">
                    <mxGeometry width="40" height="30" as="geometry"/>
                </mxCell>
                <mxCell id="45" value="Signature Dishes" style="shape=partialRectangle;html=1;whiteSpace=wrap;connectable=0;fillColor=#333333;top=0;left=0;bottom=0;right=0;align=left;spacingLeft=6;overflow=hidden;" vertex="1" parent="43">
                    <mxGeometry x="40" width="140" height="30" as="geometry"/>
                </mxCell>
                <mxCell id="46" value="" style="shape=partialRectangle;html=1;whiteSpace=wrap;collapsible=0;dropTarget=0;pointerEvents=0;fillColor=none;top=0;left=0;bottom=0;right=0;points=[[0,0.5],[1,0.5]];portConstraint=eastwest;" vertex="1" parent="39">
                    <mxGeometry y="90" width="180" height="30" as="geometry"/>
                </mxCell>
                <mxCell id="47" value="3" style="shape=partialRectangle;html=1;whiteSpace=wrap;connectable=0;fillColor=#333333;top=0;left=0;bottom=0;right=0;overflow=hidden;" vertex="1" parent="46">
                    <mxGeometry width="40" height="30" as="geometry"/>
                </mxCell>
                <mxCell id="48" value="Seafood Specialties" style="shape=partialRectangle;html=1;whiteSpace=wrap;connectable=0;fillColor=#333333;top=0;left=0;bottom=0;right=0;align=left;spacingLeft=6;overflow=hidden;" vertex="1" parent="46">
                    <mxGeometry x="40" width="140" height="30" as="geometry"/>
                </mxCell>
                <mxCell id="49" value="" style="shape=partialRectangle;html=1;whiteSpace=wrap;collapsible=0;dropTarget=0;pointerEvents=0;fillColor=none;top=0;left=0;bottom=0;right=0;points=[[0,0.5],[1,0.5]];portConstraint=eastwest;" vertex="1" parent="39">
                    <mxGeometry y="120" width="180" height="30" as="geometry"/>
                </mxCell>
                <mxCell id="50" value="4" style="shape=partialRectangle;html=1;whiteSpace=wrap;connectable=0;fillColor=#333333;top=0;left=0;bottom=0;right=0;overflow=hidden;" vertex="1" parent="49">
                    <mxGeometry width="40" height="30" as="geometry"/>
                </mxCell>
                <mxCell id="51" value="Something Appetizers" style="shape=partialRectangle;html=1;whiteSpace=wrap;connectable=0;fillColor=#333333;top=0;left=0;bottom=0;right=0;align=left;spacingLeft=6;overflow=hidden;" vertex="1" parent="49">
                    <mxGeometry x="40" width="140" height="30" as="geometry"/>
                </mxCell>
                <mxCell id="52" value="" style="shape=partialRectangle;html=1;whiteSpace=wrap;collapsible=0;dropTarget=0;pointerEvents=0;fillColor=none;top=0;left=0;bottom=0;right=0;points=[[0,0.5],[1,0.5]];portConstraint=eastwest;" vertex="1" parent="39">
                    <mxGeometry y="150" width="180" height="30" as="geometry"/>
                </mxCell>
                <mxCell id="53" value="5" style="shape=partialRectangle;html=1;whiteSpace=wrap;connectable=0;fillColor=#333333;top=0;left=0;bottom=0;right=0;overflow=hidden;" vertex="1" parent="52">
                    <mxGeometry width="40" height="30" as="geometry"/>
                </mxCell>
                <mxCell id="54" value="Wine Pairing Suggestions" style="shape=partialRectangle;html=1;whiteSpace=wrap;connectable=0;fillColor=#333333;top=0;left=0;bottom=0;right=0;align=left;spacingLeft=6;overflow=hidden;" vertex="1" parent="52">
                    <mxGeometry x="40" width="140" height="30" as="geometry"/>
                </mxCell>
                <mxCell id="55" value="" style="shape=partialRectangle;html=1;whiteSpace=wrap;collapsible=0;dropTarget=0;pointerEvents=0;fillColor=none;top=0;left=0;bottom=0;right=0;points=[[0,0.5],[1,0.5]];portConstraint=eastwest;" vertex="1" parent="39">
                    <mxGeometry y="180" width="180" height="30" as="geometry"/>
                </mxCell>
                <mxCell id="56" value="6" style="shape=partialRectangle;html=1;whiteSpace=wrap;connectable=0;fillColor=#333333;top=0;left=0;bottom=0;right=0;overflow=hidden;" vertex="1" parent="55">
                    <mxGeometry width="40" height="30" as="geometry"/>
                </mxCell>
                <mxCell id="57" value="Delictable Desserts" style="shape=partialRectangle;html=1;whiteSpace=wrap;connectable=0;fillColor=#333333;top=0;left=0;bottom=0;right=0;align=left;spacingLeft=6;overflow=hidden;" vertex="1" parent="55">
                    <mxGeometry x="40" width="140" height="30" as="geometry"/>
                </mxCell>
                <mxCell id="58" value="" style="shape=partialRectangle;html=1;whiteSpace=wrap;collapsible=0;dropTarget=0;pointerEvents=0;fillColor=none;top=0;left=0;bottom=0;right=0;points=[[0,0.5],[1,0.5]];portConstraint=eastwest;" vertex="1" parent="39">
                    <mxGeometry y="210" width="180" height="30" as="geometry"/>
                </mxCell>
                <mxCell id="59" value="7" style="shape=partialRectangle;html=1;whiteSpace=wrap;connectable=0;fillColor=#333333;top=0;left=0;bottom=0;right=0;overflow=hidden;" vertex="1" parent="58">
                    <mxGeometry width="40" height="30" as="geometry"/>
                </mxCell>
                <mxCell id="60" value="Small Bites/Starters" style="shape=partialRectangle;html=1;whiteSpace=wrap;connectable=0;fillColor=#333333;top=0;left=0;bottom=0;right=0;align=left;spacingLeft=6;overflow=hidden;" vertex="1" parent="58">
                    <mxGeometry x="40" width="140" height="30" as="geometry"/>
                </mxCell>
            </root>
        </mxGraphModel>
    </diagram>
</mxfile>